<?xml version="1.0" encoding="UTF-8"?>
<svg id="Layer_1" xmlns="http://www.w3.org/2000/svg" version="1.1" viewBox="0 0 135 115">
  <!-- Generator: Adobe Illustrator 29.0.1, SVG Export Plug-In . SVG Version: 2.1.0 Build 192)  -->
  <defs>
    <style>
      .st0 {
        fill: #d1d3d4;
      }

      .st0, .st1, .st2 {
        fill-rule: evenodd;
      }

      .st3, .st1 {
        fill: #2e3192;
      }

      .st4 {
        fill: #fff;
      }

      .st5 {
        fill: #f9f9f9;
      }

      .st6 {
        fill: #999;
      }

      .st2 {
        fill: #ed1c24;
      }

      .st7 {
        fill: #e8e8e8;
      }
    </style>
  </defs>
  <g>
    <rect class="st5" y="0" width="135" height="115" rx="3.4" ry="3.4"/>
    <path class="st7" d="M131.6.8c1.4,0,2.5,1.1,2.5,2.5v108.3c0,1.4-1.1,2.5-2.5,2.5H3.4c-1.4,0-2.5-1.1-2.5-2.5V3.4C.8,2,2,.8,3.4.8h128.3M131.6,0H3.4C1.5,0,0,1.5,0,3.4v108.3c0,1.9,1.5,3.4,3.4,3.4h128.3c1.9,0,3.4-1.5,3.4-3.4V3.4C135,1.5,133.5,0,131.6,0h0Z"/>
  </g>
  <g>
    <rect class="st4" x="17.5" y="17" width="100" height="80"/>
    <g>
      <g>
        <path class="st3" d="M28.8,85.4c.2.9.9,1.4,2,1.4s1.5-.2,2-.7h0v1.2c-.5.4-1.2.6-2.1.6-1.9,0-3.2-1.2-3.2-2.9s1.2-2.9,2.9-2.9,2.8,1,2.8,2.7v.6h-4.4ZM28.8,84.4h3.3c-.1-.8-.7-1.2-1.6-1.2s-1.5.5-1.6,1.2Z"/>
        <path class="st3" d="M40.8,86.9l1.3,1.7h-1.6l-.8-1.1c-.5.2-1.1.3-1.7.3-2.4,0-4.1-1.7-4.1-4.1s1.7-4.1,4.1-4.1,4.1,1.7,4.1,4.1-.5,2.4-1.4,3.1ZM38.9,86.5l-1.4-1.8h1.6l.9,1.1c.5-.5.8-1.2.8-2,0-1.6-1.1-2.8-2.7-2.8s-2.7,1.1-2.7,2.8,1.1,2.8,2.7,2.8.6,0,.8-.1Z"/>
        <path class="st3" d="M48,87.8v-6.6h-2.5v-1.3h6.4v1.3h-2.5v6.6h-1.4Z"/>
        <path class="st3" d="M52.8,85.4c.2.9.9,1.4,2,1.4s1.5-.2,2-.7h0v1.2c-.5.4-1.2.6-2.1.6-1.9,0-3.2-1.2-3.2-2.9s1.2-2.9,2.9-2.9,2.8,1,2.8,2.7v.6h-4.4ZM52.8,84.4h3.3c-.1-.8-.7-1.2-1.6-1.2s-1.5.5-1.6,1.2Z"/>
        <path class="st3" d="M62.8,82.6v1.4h0c-.4-.5-.9-.7-1.6-.7-1.1,0-1.9.7-1.9,1.8s.7,1.8,1.9,1.8,1.2-.2,1.6-.7h0v1.4c-.4.3-1,.5-1.8.5-1.8,0-3-1.2-3-2.9s1.2-2.9,3-2.9,1.3.2,1.8.5Z"/>
        <path class="st3" d="M69.2,84.5v3.3h-1.3v-3.1c0-.9-.5-1.4-1.3-1.4s-1.4.6-1.4,1.6v2.9h-1.3v-8.3h1.3v3.3h0c.4-.5,1-.7,1.7-.7,1.4,0,2.2.9,2.2,2.4Z"/>
        <path class="st3" d="M75.8,84.5v3.3h-1.3v-3.1c0-.9-.5-1.4-1.3-1.4s-1.4.6-1.4,1.6v2.9h-1.3v-5.6h1.1v.9h0c.4-.6,1-1,1.9-1,1.4,0,2.2.9,2.2,2.4Z"/>
        <path class="st3" d="M82.7,85c0,1.7-1.2,2.9-3,2.9s-2.9-1.2-2.9-2.9,1.2-2.9,2.9-2.9,3,1.2,3,2.9ZM78.1,85c0,1,.7,1.8,1.7,1.8s1.7-.7,1.7-1.8-.7-1.8-1.7-1.8-1.7.7-1.7,1.8Z"/>
        <path class="st3" d="M83.9,79.5h1.3v8.3h-1.3v-8.3Z"/>
        <path class="st3" d="M92.2,85c0,1.7-1.2,2.9-3,2.9s-2.9-1.2-2.9-2.9,1.2-2.9,2.9-2.9,3,1.2,3,2.9ZM87.5,85c0,1,.7,1.8,1.7,1.8s1.7-.7,1.7-1.8-.7-1.8-1.7-1.8-1.7.7-1.7,1.8Z"/>
        <path class="st3" d="M98.8,87.3c0,1.8-1.1,2.8-3,2.8s-1.8-.2-2.3-.7v-1.3h0c.4.5,1.2.9,2.1.9,1.2,0,1.9-.6,1.9-1.8h0c0-.1,0-.1,0-.1-.4.4-1,.7-1.8.7-1.6,0-2.7-1.2-2.7-2.9s1.2-2.9,2.7-2.9,1.6.3,2,.9h0v-.8h1.1v5.1ZM97.6,84.9c0-1.1-.7-1.7-1.7-1.7s-1.7.7-1.7,1.7.7,1.7,1.7,1.7,1.7-.7,1.7-1.7Z"/>
        <path class="st3" d="M101.7,80.5c0,.5-.3.8-.8.8s-.8-.3-.8-.8.3-.8.8-.8.8.3.8.8ZM101.6,82.2v5.6h-1.3v-5.6h1.3Z"/>
        <path class="st3" d="M107.5,82.6v1.4h0c-.4-.5-.9-.7-1.6-.7-1.1,0-1.9.7-1.9,1.8s.7,1.8,1.9,1.8,1.2-.2,1.6-.7h0v1.4c-.4.3-1,.5-1.8.5-1.8,0-3-1.2-3-2.9s1.2-2.9,3-2.9,1.3.2,1.8.5Z"/>
      </g>
      <g>
        <path class="st0" d="M35.1,73.5c15.7-25.4,26.1-31.8,64.8-39.3-4.6,5.5-8.2,9.4-12.7,15-9.3.2-27.7-3.6-48.8,23.3-1.2,1.6-1.9-.4-3.3,1h0Z"/>
        <g>
          <path class="st2" d="M63.6,63.9c-1.1,0-2.2.3-3.3.5-3.5.8-6.6,2.3-8.9,5.1,0,0-.2.2-.2.2.2.3.7.3,1,.3s.7-.3,1-.5c2.9-1.8,5.7-2.6,9-2.2,2.9.4,5.6,1.7,8.5,2.3,3.1.6,6.3.2,9.3-.8s5.6-2.4,7.8-4.6c.3-.3.6-.9.2-1.1-.1,0-.3,0-.5,0-2.9.7-5.3,2.5-8.2,2.9-3.4.5-6.5-1.3-9.8-1.9-2-.4-4-.4-6.1-.3Z"/>
          <path class="st1" d="M68.6,55.6c1.3,0,2.6-.4,3.7-1,.8-.5,1.7-1.3,2.7-1.4.9,0,1,.7.6,1.3-.5.9-1.4,1.6-2.2,2.2-2.8,2.4-5.9,4-9.7,4.1-2.7.1-5.4-.2-7.9-1.2-2.1-.8-4.1-2.1-5.9-3.6-.9-.8-1.8-1.8-2.4-2.9s-.9-2.7-.9-4c0-1.7,0-3.3.4-4.9s.2-.9.3-1.3c.6-2.3,1.6-4.5,2.8-6.5s2.8-4.2,4.5-6.1c1.1-1.2,2.3-2.3,3.5-3.2.9-.7,1.8-1.4,2.8-1.8s2.2-.8,3.4-1.1c3.7-.8,8.1-.6,11.4,1.3,3.6,2.1,5.8,6.7,5.4,10.8s-.2,1.3-.4,2c-.6,2.2-1.8,4.3-3,6.2-.5.8-1,1.5-1.6,2.2-.9,1.2-2,2.4-3.3,3.3-2.8,1.8-6.2,1.6-9.3,1-2-.4-4.1-.9-5.4-2.5-.4-.4-.7-.9-.9-1.5-.4-.9-.5-2-.3-3,.4-2.2,1.8-4.1,3.2-5.7s2.9-2.8,4.5-4c.8-.6,1.9-1,2.9-1,1.2,0,2.3.7,2.7,1.8,1,3-2,5.5-3.9,7.4-.4.4-1.2,1-1.2,1.7,0,.4.2.7.5,1,.5.4,1.1.6,1.7.8,1.1.4,2.2.6,3.3.6s1.5,0,2.1-.2c1.1-.3,1.7-1.6,2-2.5,1.3-3.6,1.2-8-1.3-11s-.8-.8-1.2-1.2c-1.6-1.5-3.7-2.5-5.9-2.9-2.1-.4-4.3-.3-6.3.4-2.2.8-3.8,2.2-5,4.1s-.5.8-.7,1.2c-1.1,2.1-1.8,4.4-2.2,6.7s-.2,1.4-.3,2.2c-.2,1.9.3,3.8,1.2,5.5s2.6,3.2,4.4,4.3c2.1,1.3,4.6,2,7,2.3,1.3.2,2.6.3,3.9.2ZM62.4,42.3s0,0,0,0c0,.4.4.8.9.7.6-.2,1.1-.8,1.4-1.4s.7-1.4.7-2.1,0-.1,0-.2c0-.2,0-.4-.1-.6-.1-.3-.4-.4-.7-.5,0,0,0,0-.1,0-.8,0-1.4.5-1.7,1.2-.2.4-.3.7-.4,1.1-.1.6-.2,1.1,0,1.7Z"/>
        </g>
      </g>
    </g>
  </g>
  <path class="st6" d="M17.9,106.1c-.2,0-.4-.2-.4-.3V8.1c0-.2.2-.3.4-.3s.4.2.4.3v97.7c0,.2-.2.3-.4.3Z"/>
  <path class="st6" d="M117.1,106.1c-.2,0-.4-.2-.4-.3V8.1c0-.2.2-.3.4-.3s.4.2.4.3v97.7c0,.2-.2.3-.4.3Z"/>
  <path class="st6" d="M126.7,17.7H8.3c-.2,0-.3-.2-.3-.4s.1-.4.3-.4h118.5c.2,0,.3.2.3.4s-.1.4-.3.4Z"/>
  <path class="st6" d="M126.7,97H8.3c-.2,0-.3-.2-.3-.4s.1-.4.3-.4h118.5c.2,0,.3.2.3.4s-.1.4-.3.4Z"/>
</svg>